<?xml version="1.0" encoding="iso-8859-1"?>

<!DOCTYPE svg PUBLIC "-//W3C//DTD SVG 1.1//EN" "http://www.w3.org/Graphics/SVG/1.1/DTD/svg11.dtd">
<!-- Uploaded to: SVG Repo, www.svgrepo.com, Generator: SVG Repo Mixer Tools -->
<svg height="800px" width="800px" version="1.1" id="_x36_" xmlns="http://www.w3.org/2000/svg" xmlns:xlink="http://www.w3.org/1999/xlink" 
	 viewBox="0 0 512 512"  xml:space="preserve">
<g>
	<path style="fill:#F1F1F1;" d="M464.529,232.261c0,64.143-25.997,122.208-68.028,164.24C354.469,438.531,302.978,512,232.261,512
		c-70.71,0-122.201-73.469-164.233-115.5C25.997,354.469,0,296.404,0,232.261c0-64.136,25.997-122.201,68.028-164.232
		C110.06,25.997,168.125,0,232.261,0C296.404,0,354.469,25.997,396.5,68.028C438.532,110.059,464.529,168.125,464.529,232.261z"/>
	<g>
		<path style="fill:#D8D8D8;" d="M396.5,68.028C354.469,25.997,296.404,0,232.261,0v512c70.717,0,122.208-73.469,164.239-115.5
			c42.031-42.031,68.028-100.096,68.028-164.24C464.529,168.125,438.532,110.059,396.5,68.028z"/>
	</g>
	<g>
		<path style="fill:#618881;" d="M28.221,231.694c5.249,26.24,17.13,63.372,44.458,84.394
			c30.106,23.15,75.253,29.508,117.092,25.571c9.505-0.892,17.041-8.237,14.028-24.061c-7.664-40.222-26.666-73.743-61.04-94.95
			c-27.947-17.238-69.41-25.991-103.212-17.671C28.979,207.582,25.208,216.622,28.221,231.694z"/>
		<path style="fill:#618881;" d="M436.309,231.694c-5.249,26.24-17.13,63.372-44.459,84.394
			c-30.099,23.15-75.252,29.508-117.093,25.571c-9.504-0.892-17.034-8.237-14.021-24.061c7.658-40.222,26.66-73.743,61.034-94.95
			c27.952-17.238,69.41-25.991,103.211-17.671C435.551,207.582,439.322,216.622,436.309,231.694z"/>
	</g>
	<g>
		<path style="fill:#D8D8D8;" d="M210.201,244.123c0,0-40.687-70.073-131.113-74.596
			C124.297,144.657,212.462,187.611,210.201,244.123z"/>
		<path style="fill:#E0E2E2;" d="M254.328,240.734c0,0,40.694-70.073,131.113-74.597
			C340.232,141.268,252.066,184.223,254.328,240.734z"/>
	</g>
	<path style="fill:#939293;" d="M267.681,449.463c0,4.581-3.708,8.294-8.288,8.294h-54.25c-4.58,0-8.294-3.714-8.294-8.294l0,0
		c0-4.574,3.714-8.288,8.294-8.288h54.25C263.973,441.175,267.681,444.889,267.681,449.463L267.681,449.463z"/>
	<g>
		<path style="fill:#939293;" d="M221.712,414.802c0,4.16-3.37,7.536-7.53,7.536c-4.166,0-7.536-3.376-7.536-7.536
			c0-4.16,3.37-7.536,7.536-7.536C218.342,407.266,221.712,410.642,221.712,414.802z"/>
		<path style="fill:#939293;" d="M257.883,414.802c0,4.16-3.37,7.536-7.53,7.536c-4.166,0-7.536-3.376-7.536-7.536
			c0-4.16,3.37-7.536,7.536-7.536C254.513,407.266,257.883,410.642,257.883,414.802z"/>
	</g>
	<path style="fill:#FFFFFF;" d="M123.813,229.433c-19.219-11.301-64.43-14.697-74.603-1.134c0,26.004,22.608,51.994,22.608,51.994
		L123.813,229.433z"/>
	<path style="fill:#FFFFFF;" d="M303.533,297.251l41.814-41.821C345.347,255.43,299.009,242.995,303.533,297.251z"/>
</g>
</svg>